<svg width="24" height="24" viewBox="0 0 24 24" fill="none" xmlns="http://www.w3.org/2000/svg">
<path d="M18.643 6.99437C18.545 6.7729 18.3849 6.58465 18.1819 6.45251C17.979 6.32036 17.742 6.25001 17.4999 6.25H6.49988C6.25775 6.25002 6.02084 6.32037 5.81794 6.45249C5.61503 6.5846 5.45486 6.77281 5.35689 6.99423C5.25892 7.21565 5.22737 7.46076 5.26607 7.69978C5.30477 7.93879 5.41205 8.16143 5.57488 8.34062L5.58238 8.34937L9.74988 12.7969V17.5C9.74985 17.7263 9.81125 17.9484 9.92754 18.1425C10.0438 18.3367 10.2106 18.4956 10.4102 18.6023C10.6097 18.7091 10.8345 18.7597 11.0605 18.7487C11.2866 18.7377 11.5054 18.6656 11.6936 18.54L13.6936 17.2069C13.8649 17.0926 14.0052 16.9379 14.1023 16.7563C14.1993 16.5748 14.25 16.3721 14.2499 16.1663V12.7969L18.4168 8.34937L18.4243 8.34062C18.5872 8.16152 18.6946 7.93895 18.7334 7.69996C18.7723 7.46097 18.7408 7.21585 18.643 6.99437ZM13.088 11.8431C12.8704 12.0746 12.7494 12.3804 12.7499 12.6981V16.0325L11.2499 17.0325V12.6981C11.2503 12.3804 11.1294 12.0746 10.9118 11.8431L7.07675 7.75H16.923L13.088 11.8431Z" fill="#1C1D23"/>
</svg>
