<svg width="81" height="80" viewBox="0 0 81 80" fill="none" xmlns="http://www.w3.org/2000/svg">
<path d="M29.8188 36.45C30.4038 36.1255 30.8914 35.6505 31.231 35.0741C31.5706 34.4976 31.7498 33.8409 31.75 33.1719V12.7313C31.7501 12.1028 31.5922 11.4843 31.2908 10.9328C30.9895 10.3813 30.5543 9.91431 30.0254 9.57486C29.4965 9.23541 28.8907 9.03434 28.2638 8.99014C27.6368 8.94593 27.0088 9.06 26.4375 9.32188C20.5696 12.0224 15.5974 16.3463 12.1087 21.7827C8.61993 27.219 6.76045 33.5405 6.75 40C6.75 41.0531 6.8 42.1125 6.89687 43.1562C6.95493 43.7764 7.16657 44.3724 7.51267 44.8903C7.85877 45.4082 8.32843 45.8317 8.87923 46.1227C9.43003 46.4136 10.0446 46.5627 10.6675 46.5565C11.2904 46.5504 11.9019 46.3892 12.4469 46.0875L29.8188 36.45ZM24.25 19.3938V30.9562L14.5031 36.3625C15.4556 29.6655 18.945 23.5906 24.25 19.3938ZM69.8375 23.3313C69.8031 23.2563 69.7625 23.1844 69.7219 23.1125C69.6812 23.0406 69.6406 22.9781 69.5969 22.9156C66.6184 17.8443 62.3669 13.6388 57.2634 10.7157C52.1599 7.79261 46.3814 6.25323 40.5 6.25C39.5054 6.25 38.5516 6.64509 37.8483 7.34835C37.1451 8.05161 36.75 9.00544 36.75 10V37.9781L12.7438 51.9594C12.3169 52.208 11.9433 52.5385 11.6446 52.932C11.3458 53.3254 11.1277 53.774 11.0028 54.252C10.878 54.7299 10.8488 55.2279 10.9169 55.7172C10.9851 56.2065 11.1493 56.6775 11.4 57.1031C15.1526 63.4908 20.9026 68.4663 27.7632 71.2621C34.6237 74.0579 42.2136 74.5187 49.362 72.5735C56.5104 70.6282 62.8202 66.3849 67.318 60.4982C71.8158 54.6115 74.2517 47.4084 74.25 40C74.2585 34.154 72.7373 28.4074 69.8375 23.3313ZM44.25 14.0156C50.9188 14.9854 56.9601 18.4803 61.125 23.7781L44.25 33.6094V14.0156ZM40.5 66.25C36.5669 66.2394 32.686 65.35 29.1408 63.6469C25.5956 61.9437 22.4757 59.4699 20.0094 56.4062L42.3281 43.4062L42.4406 43.3438L64.875 30.2719C66.4639 34.254 67.0532 38.5646 66.5915 42.827C66.1297 47.0895 64.631 51.1739 62.2262 54.7234C59.8215 58.2729 56.584 61.1793 52.7966 63.1886C49.0092 65.198 44.7874 66.249 40.5 66.25Z" fill="#4F46E5"/>
</svg>
