<svg width="1440" height="1024" viewBox="0 0 1440 1024" fill="none" xmlns="http://www.w3.org/2000/svg">
<path opacity="0.25" d="M127.527 1408C-24.6694 1408 -148.214 1283.31 -148.214 1129.7V1129.43V928.332C-150.317 911.353 -159.517 866.516 -190.797 834.945C-222.867 802.578 -275.176 793.823 -287.267 792.231H-480.996C-480.996 792.231 -480.996 792.231 -481.259 792.231C-633.455 792.231 -757 667.539 -757 513.929C-757 513.663 -757 513.663 -757 513.398C-757 513.133 -757 512.867 -757 512.602C-757 358.992 -633.455 234.299 -481.259 234.299C-481.259 234.299 -481.259 234.299 -480.996 234.299H-289.896L-290.159 234.034C-290.159 234.564 -229.175 228.993 -190.009 189.463C-157.151 156.3 -149.003 101.913 -147.688 91.3007V-103.432C-147.688 -103.432 -147.688 -103.432 -147.688 -103.697C-147.951 -257.573 -24.4066 -382 127.79 -382C261.06 -382 371.988 -286.756 397.748 -159.941C401.428 -141.901 403.268 -123.064 403.268 -103.962C403.268 -103.962 403.268 -103.962 403.268 -103.697V93.6884C405.108 106.954 413.52 157.096 445.589 188.932C486.069 229.789 543.899 234.034 543.899 234.034L543.636 234.299H736.576H736.839C889.035 234.299 1012.58 358.726 1012.58 512.337C1012.58 665.947 889.298 790.64 736.839 790.64C584.642 790.64 461.098 665.947 461.098 512.337C461.098 512.337 461.098 512.337 461.098 512.071V309.91C458.469 292.135 448.48 247.564 417.726 216.524C386.708 185.218 336.764 176.198 322.57 174.075H127.527C127.527 174.075 127.527 174.075 127.264 174.075H127.001H-65.4128C-65.4128 174.075 -126.397 179.912 -163.197 217.054C-195.529 249.687 -203.941 293.727 -206.043 310.176V512.071V512.337C-206.043 512.602 -206.043 512.867 -206.043 513.133C-206.043 513.398 -206.043 513.398 -206.043 513.663C-206.043 513.663 -206.043 513.663 -206.043 513.929V710.518C-204.729 721.661 -196.318 773.926 -163.723 806.823C-123.242 847.68 -65.15 850.598 -65.15 850.598L-65.4128 850.864H127.001H127.264C279.461 850.864 403.005 975.556 403.005 1129.17C403.268 1283.31 279.724 1408 127.527 1408ZM457.943 -103.697C457.943 49.9134 581.225 174.606 733.684 174.606H733.947H926.362L926.099 174.871C926.099 174.871 984.191 178.055 1024.67 218.646C1057.53 251.809 1065.68 303.809 1066.99 314.951V511.541V511.806C1066.99 512.071 1066.99 512.337 1066.99 512.337C1066.99 512.602 1066.99 512.602 1066.99 512.867V513.133V715.028C1064.89 731.212 1056.48 775.517 1024.15 807.884C987.082 845.292 926.362 850.864 926.362 850.864H733.947H538.904C524.71 848.741 474.766 839.721 443.749 808.415C412.994 777.64 403.268 732.804 400.377 715.028V512.867C400.377 512.867 400.377 512.867 400.377 512.602C400.377 358.992 277.095 234.299 124.636 234.299C-27.5609 234.299 -151.106 358.992 -151.106 512.602C-151.106 666.213 -27.5609 790.905 124.636 790.905H317.838L317.576 791.17C317.576 791.17 375.668 795.415 415.885 836.272C447.692 868.373 456.366 918.516 458.206 931.516V1128.9V1129.17C458.206 1148.27 460.309 1167.1 463.989 1185.15C489.75 1311.96 600.94 1407.47 733.947 1407.47C886.144 1407.47 1009.69 1282.78 1009.69 1129.17C1009.69 1129.17 1009.69 1129.17 1009.69 1128.9V933.638C1011 923.026 1019.41 868.639 1052.01 835.476C1090.91 796.211 1152.16 790.64 1152.16 790.905L1151.9 790.64H1343C1343 790.64 1343 790.64 1343.26 790.64C1495.46 790.64 1619 666.213 1619 512.337C1619 512.071 1619 512.071 1619 511.806C1619 511.541 1619 511.275 1619 511.275C1619 357.665 1495.46 232.973 1343.26 232.973H1343H1149.27C1137.18 231.381 1084.87 222.626 1052.8 190.259C1021.52 158.688 1012.32 113.586 1010.21 96.8721V-103.432C1010.21 -103.432 1010.21 -103.432 1010.21 -103.697C1009.43 -257.573 885.881 -382 733.684 -382C581.488 -382 457.943 -257.573 457.943 -103.697Z" fill="#FBFBFC"/>
</svg>
