<svg width="25" height="24" viewBox="0 0 25 24" fill="none" xmlns="http://www.w3.org/2000/svg">
<path d="M9.29562 10.935C9.47114 10.8377 9.61742 10.6951 9.7193 10.5222C9.82117 10.3493 9.87493 10.1523 9.875 9.95156V3.81938C9.87502 3.63083 9.82765 3.4453 9.73725 3.27984C9.64684 3.11438 9.5163 2.97429 9.35762 2.87246C9.19894 2.77062 9.01721 2.7103 8.82913 2.69704C8.64105 2.68378 8.45265 2.718 8.28125 2.79656C6.52087 3.60671 5.02923 4.9039 3.9826 6.5348C2.93598 8.1657 2.37814 10.0622 2.375 12C2.375 12.3159 2.39 12.6338 2.41906 12.9469C2.43648 13.1329 2.49997 13.3117 2.6038 13.4671C2.70763 13.6225 2.84853 13.7495 3.01377 13.8368C3.17901 13.9241 3.36339 13.9688 3.55025 13.967C3.73711 13.9651 3.92057 13.9168 4.08406 13.8263L9.29562 10.935ZM7.625 5.81813V9.28687L4.70094 10.9088C4.98668 8.89966 6.03351 7.07719 7.625 5.81813ZM21.3013 6.99938C21.2909 6.97688 21.2787 6.95531 21.2666 6.93375C21.2544 6.91219 21.2422 6.89344 21.2291 6.87469C20.3355 5.35328 19.0601 4.09164 17.529 3.21471C15.998 2.33778 14.2644 1.87597 12.5 1.875C12.2016 1.875 11.9155 1.99353 11.7045 2.2045C11.4935 2.41548 11.375 2.70163 11.375 3V11.3934L4.17313 15.5878C4.04506 15.6624 3.93299 15.7616 3.84337 15.8796C3.75374 15.9976 3.68831 16.1322 3.65085 16.2756C3.6134 16.419 3.60464 16.5684 3.62508 16.7152C3.64553 16.8619 3.69478 17.0032 3.77 17.1309C4.89577 19.0472 6.62078 20.5399 8.67895 21.3786C10.7371 22.2174 13.0141 22.3556 15.1586 21.772C17.3031 21.1885 19.196 19.9155 20.5454 18.1495C21.8947 16.3834 22.6255 14.2225 22.625 12C22.6276 10.2462 22.1712 8.52223 21.3013 6.99938ZM13.625 4.20469C15.6256 4.49561 17.438 5.5441 18.6875 7.13344L13.625 10.0828V4.20469ZM12.5 19.875C11.3201 19.8718 10.1558 19.605 9.09223 19.0941C8.02867 18.5831 7.09272 17.841 6.35281 16.9219L13.0484 13.0219L13.0822 13.0031L19.8125 9.08156C20.2892 10.2762 20.466 11.5694 20.3274 12.8481C20.1889 14.1268 19.7393 15.3522 19.0179 16.417C18.2964 17.4819 17.3252 18.3538 16.189 18.9566C15.0528 19.5594 13.7862 19.8747 12.5 19.875Z" fill="#FBFBFC"/>
</svg>
