<svg width="34" height="34" viewBox="0 0 34 34" fill="none" xmlns="http://www.w3.org/2000/svg">
<rect width="34" height="34" rx="17" fill="#1EB3DB" fill-opacity="0.2"/>
<path d="M7 20.75L6.02986 20.9925C6.14115 21.4377 6.54113 21.75 7 21.75V20.75ZM6 16.75L5.10557 16.3028C4.99882 16.5163 4.97196 16.761 5.02986 16.9925L6 16.75ZM9 10.75V9.75C8.62123 9.75 8.27496 9.964 8.10557 10.3028L9 10.75ZM18 10.75L18.7071 10.0429C18.5196 9.85536 18.2652 9.75 18 9.75V10.75ZM22 14.75L21.2929 15.4571C21.4403 15.6045 21.63 15.7021 21.8356 15.7364L22 14.75ZM28 15.75H29C29 15.2612 28.6466 14.844 28.1644 14.7636L28 15.75ZM28 20.75V21.75C28.5523 21.75 29 21.3023 29 20.75H28ZM7.97014 20.5075L6.97014 16.5075L5.02986 16.9925L6.02986 20.9925L7.97014 20.5075ZM6.89443 17.1972L9.89443 11.1972L8.10557 10.3028L5.10557 16.3028L6.89443 17.1972ZM9 11.75H18V9.75H9V11.75ZM17.2929 11.4571L21.2929 15.4571L22.7071 14.0429L18.7071 10.0429L17.2929 11.4571ZM21.8356 15.7364L27.8356 16.7364L28.1644 14.7636L22.1644 13.7636L21.8356 15.7364ZM27 15.75V20.75H29V15.75H27ZM13.5 20.75C13.5 21.5784 12.8284 22.25 12 22.25V24.25C13.933 24.25 15.5 22.683 15.5 20.75H13.5ZM12 22.25C11.1716 22.25 10.5 21.5784 10.5 20.75H8.5C8.5 22.683 10.067 24.25 12 24.25V22.25ZM10.5 20.75C10.5 19.9216 11.1716 19.25 12 19.25V17.25C10.067 17.25 8.5 18.817 8.5 20.75H10.5ZM12 19.25C12.8284 19.25 13.5 19.9216 13.5 20.75H15.5C15.5 18.817 13.933 17.25 12 17.25V19.25ZM24.5 20.75C24.5 21.5784 23.8284 22.25 23 22.25V24.25C24.933 24.25 26.5 22.683 26.5 20.75H24.5ZM23 22.25C22.1716 22.25 21.5 21.5784 21.5 20.75H19.5C19.5 22.683 21.067 24.25 23 24.25V22.25ZM21.5 20.75C21.5 19.9216 22.1716 19.25 23 19.25V17.25C21.067 17.25 19.5 18.817 19.5 20.75H21.5ZM23 19.25C23.8284 19.25 24.5 19.9216 24.5 20.75H26.5C26.5 18.817 24.933 17.25 23 17.25V19.25ZM7 21.75H9.5V19.75H7V21.75ZM14.5 21.75H20.5V19.75H14.5V21.75ZM25.5 21.75H28V19.75H25.5V21.75Z" fill="#1EB3DB"/>
</svg>
