<svg width="34" height="34" viewBox="0 0 34 34" fill="none" xmlns="http://www.w3.org/2000/svg">
<rect width="34" height="34" rx="17" fill="#FF69B4" fill-opacity="0.2"/>
<path d="M11 15.95L10 16.5C9.76667 16.6333 9.51667 16.6667 9.25 16.6C8.98333 16.5333 8.78333 16.3833 8.65 16.15L6.65 12.65C6.51667 12.4167 6.48333 12.1667 6.55 11.9C6.61667 11.6333 6.76667 11.4333 7 11.3L12.75 8H14.5C14.65 8 14.7708 8.04583 14.8625 8.1375C14.9542 8.22917 15 8.35 15 8.5V9C15 9.55 15.1958 10.0208 15.5875 10.4125C15.9792 10.8042 16.45 11 17 11C17.55 11 18.0208 10.8042 18.4125 10.4125C18.8042 10.0208 19 9.55 19 9V8.5C19 8.35 19.0458 8.22917 19.1375 8.1375C19.2292 8.04583 19.35 8 19.5 8H21.25L27 11.3C27.2333 11.4333 27.3833 11.6333 27.45 11.9C27.5167 12.1667 27.4833 12.4167 27.35 12.65L25.35 16.15C25.2167 16.3833 25.0208 16.5292 24.7625 16.5875C24.5042 16.6458 24.25 16.6083 24 16.475L23 15.975V25C23 25.2833 22.9042 25.5208 22.7125 25.7125C22.5208 25.9042 22.2833 26 22 26H12C11.7167 26 11.4792 25.9042 11.2875 25.7125C11.0958 25.5208 11 25.2833 11 25V15.95ZM13 12.6V24H21V12.6L24.1 14.3L25.15 12.55L20.85 10.05C20.6 10.9 20.1292 11.6042 19.4375 12.1625C18.7458 12.7208 17.9333 13 17 13C16.0667 13 15.2542 12.7208 14.5625 12.1625C13.8708 11.6042 13.4 10.9 13.15 10.05L8.85 12.55L9.9 14.3L13 12.6Z" fill="#FF69B4"/>
</svg>
