<svg width="34" height="34" viewBox="0 0 34 34" fill="none" xmlns="http://www.w3.org/2000/svg">
<rect width="34" height="34" rx="17" fill="#9FD11F" fill-opacity="0.2"/>
<path d="M21 25V26H21.8471L21.9864 25.1644L21 25ZM13 25L12.0136 25.1644L12.1529 26H13V25ZM10 13L9.02986 12.7575C8.95517 13.0562 9.02229 13.3727 9.21179 13.6154C9.4013 13.8581 9.69206 14 10 14V13ZM24 13V14C24.3079 14 24.5987 13.8581 24.7882 13.6154C24.9777 13.3727 25.0448 13.0562 24.9701 12.7575L24 13ZM23.1894 9.75746L22.2192 10L23.1894 9.75746ZM11 14H23V12H11V14ZM22.0136 12.8356L20.0136 24.8356L21.9864 25.1644L23.9864 13.1644L22.0136 12.8356ZM21 24H13V26H21V24ZM13.9864 24.8356L11.9864 12.8356L10.0136 13.1644L12.0136 25.1644L13.9864 24.8356ZM11 12H10V14H11V12ZM10.9701 13.2425L11.7808 10L9.84049 9.51493L9.02986 12.7575L10.9701 13.2425ZM22.2192 10L23.0299 13.2425L24.9701 12.7575L24.1595 9.51493L22.2192 10ZM24 12H23V14H24V12ZM11.7808 10H22.2192V8H11.7808V10ZM24.1595 9.51493C23.9369 8.6246 23.137 8 22.2192 8V10L24.1595 9.51493ZM11.7808 10L11.7808 10V8C10.863 8 10.0631 8.62459 9.84049 9.51493L11.7808 10Z" fill="#76A305"/>
</svg>
