<svg width="34" height="34" viewBox="0 0 34 34" fill="none" xmlns="http://www.w3.org/2000/svg">
<rect width="34" height="34" rx="17" fill="#FFD700" fill-opacity="0.2"/>
<path d="M12.5 27C11.5333 27 10.7083 26.6583 10.025 25.975C9.34167 25.2917 9 24.4667 9 23.5V10.5C9 9.53333 9.34167 8.70833 10.025 8.025C10.7083 7.34167 11.5333 7 12.5 7H25V22C24.5833 22 24.2292 22.1458 23.9375 22.4375C23.6458 22.7292 23.5 23.0833 23.5 23.5C23.5 23.9167 23.6458 24.2708 23.9375 24.5625C24.2292 24.8542 24.5833 25 25 25V27H12.5ZM11 20.325C11.2333 20.2083 11.475 20.125 11.725 20.075C11.975 20.025 12.2333 20 12.5 20H13V9H12.5C12.0833 9 11.7292 9.14583 11.4375 9.4375C11.1458 9.72917 11 10.0833 11 10.5V20.325ZM15 20H23V9H15V20ZM12.5 25H21.825C21.725 24.7667 21.6458 24.5292 21.5875 24.2875C21.5292 24.0458 21.5 23.7833 21.5 23.5C21.5 23.2333 21.525 22.975 21.575 22.725C21.625 22.475 21.7083 22.2333 21.825 22H12.5C12.0667 22 11.7083 22.1458 11.425 22.4375C11.1417 22.7292 11 23.0833 11 23.5C11 23.9333 11.1417 24.2917 11.425 24.575C11.7083 24.8583 12.0667 25 12.5 25Z" fill="#FFD700"/>
</svg>
