<svg width="34" height="34" viewBox="0 0 34 34" fill="none" xmlns="http://www.w3.org/2000/svg">
<rect width="34" height="34" rx="17" fill="#FF6347" fill-opacity="0.2"/>
<path d="M12.5 7.82501C13.3667 7.82501 14.1917 8.00835 14.975 8.37501C15.7583 8.74168 16.4333 9.25835 17 9.92501C17.5667 9.25835 18.2417 8.74168 19.025 8.37501C19.8083 8.00835 20.6333 7.82501 21.5 7.82501C23.0667 7.82501 24.375 8.35001 25.425 9.40001C26.475 10.45 27 11.7583 27 13.325C27 13.4083 26.9958 13.4917 26.9875 13.575C26.9792 13.6583 26.975 13.7417 26.975 13.825H24.975C24.9917 13.7417 25 13.6583 25 13.575V13.325C25 12.325 24.6667 11.4917 24 10.825C23.3333 10.1583 22.5 9.82501 21.5 9.82501C20.7167 9.82501 19.9917 10.0458 19.325 10.4875C18.6583 10.9292 18.2 11.4917 17.95 12.175H16.05C15.8 11.4917 15.3417 10.9292 14.675 10.4875C14.0083 10.0458 13.2833 9.82501 12.5 9.82501C11.5 9.82501 10.6667 10.1583 10 10.825C9.33333 11.4917 9 12.325 9 13.325V13.575C9 13.6583 9.00833 13.7417 9.025 13.825H7.025C7.025 13.7417 7.02083 13.6583 7.0125 13.575C7.00417 13.4917 7 13.4083 7 13.325C7 11.7583 7.525 10.45 8.575 9.40001C9.625 8.35001 10.9333 7.82501 12.5 7.82501ZM10.3 19.825H13.1C13.6333 20.3417 14.2167 20.9 14.85 21.5C15.4833 22.1 16.2 22.7583 17 23.475C17.8 22.7583 18.5167 22.1 19.15 21.5C19.7833 20.9 20.3667 20.3417 20.9 19.825H23.725C23.0917 20.525 22.3417 21.2833 21.475 22.1C20.6083 22.9167 19.6 23.8417 18.45 24.875L17 26.175L15.55 24.875C14.4 23.8417 13.3958 22.9167 12.5375 22.1C11.6792 21.2833 10.9333 20.525 10.3 19.825ZM16.05 20.825C16.2667 20.825 16.4542 20.7625 16.6125 20.6375C16.7708 20.5125 16.8833 20.35 16.95 20.15L18.3 16.075L19.175 17.375C19.2583 17.5083 19.375 17.6167 19.525 17.7C19.675 17.7833 19.8333 17.825 20 17.825H28V15.825H20.575L18.85 13.275C18.75 13.125 18.6208 13.0125 18.4625 12.9375C18.3042 12.8625 18.1333 12.825 17.95 12.825C17.7333 12.825 17.5458 12.8875 17.3875 13.0125C17.2292 13.1375 17.1167 13.3 17.05 13.5L15.7 17.55L14.85 16.275C14.7667 16.1417 14.65 16.0333 14.5 15.95C14.35 15.8667 14.1917 15.825 14.025 15.825H6V17.825H13.425L15.15 20.375C15.25 20.525 15.3792 20.6375 15.5375 20.7125C15.6958 20.7875 15.8667 20.825 16.05 20.825Z" fill="#FF6347"/>
</svg>
