<svg width="34" height="34" viewBox="0 0 34 34" fill="none" xmlns="http://www.w3.org/2000/svg">
<rect width="34" height="34" rx="17" fill="#FFA500" fill-opacity="0.2"/>
<path d="M21 16.5C21.2833 16.5 21.5208 16.4042 21.7125 16.2125C21.9042 16.0208 22 15.7833 22 15.5C22 15.2167 21.9042 14.9792 21.7125 14.7875C21.5208 14.5958 21.2833 14.5 21 14.5C20.7167 14.5 20.4792 14.5958 20.2875 14.7875C20.0958 14.9792 20 15.2167 20 15.5C20 15.7833 20.0958 16.0208 20.2875 16.2125C20.4792 16.4042 20.7167 16.5 21 16.5ZM13 14.5H18V12.5H13V14.5ZM9.5 26.5C8.93333 24.6 8.375 22.7042 7.825 20.8125C7.275 18.9208 7 16.9833 7 15C7 13.4667 7.53333 12.1667 8.6 11.1C9.66667 10.0333 10.9667 9.5 12.5 9.5H17.5C17.9833 8.86667 18.5708 8.375 19.2625 8.025C19.9542 7.675 20.7 7.5 21.5 7.5C21.9167 7.5 22.2708 7.64583 22.5625 7.9375C22.8542 8.22917 23 8.58333 23 9C23 9.1 22.9875 9.2 22.9625 9.3C22.9375 9.4 22.9083 9.49167 22.875 9.575C22.8083 9.75833 22.7458 9.94583 22.6875 10.1375C22.6292 10.3292 22.5833 10.525 22.55 10.725L24.825 13H27V19.975L24.175 20.9L22.5 26.5H17V24.5H15V26.5H9.5ZM11 24.5H13V22.5H19V24.5H21L22.55 19.35L25 18.525V15H24L20.5 11.5C20.5 11.1667 20.5208 10.8458 20.5625 10.5375C20.6042 10.2292 20.6667 9.91667 20.75 9.6C20.2667 9.73333 19.8417 9.9625 19.475 10.2875C19.1083 10.6125 18.8417 11.0167 18.675 11.5H12.5C11.5333 11.5 10.7083 11.8417 10.025 12.525C9.34167 13.2083 9 14.0333 9 15C9 16.6333 9.225 18.2292 9.675 19.7875C10.125 21.3458 10.5667 22.9167 11 24.5Z" fill="#FFA500"/>
</svg>
